<?xml version="1.0" encoding="UTF-8"?>
<svg version="1.1" xmlns="http://www.w3.org/2000/svg" width="900" height="900">
<path d="M0 0 C297 0 594 0 900 0 C900 297 900 594 900 900 C603 900 306 900 0 900 C0 603 0 306 0 0 Z " fill="#FEFEFE" transform="translate(0,0)"/>
<path d="M0 0 C0.7920282 0.00021149 1.5840564 0.00042297 2.40008545 0.00064087 C14.32449995 0.03234754 25.67469807 0.75299575 37.26318359 3.78955078 C39.49618924 4.3740026 41.73742337 4.8915212 43.98828125 5.40234375 C86.04163309 15.46128096 121.55564827 45.11692045 143.9765625 81.31640625 C153.42619069 97.11431779 159.62253968 114.42671708 163.5 132.375 C163.66371094 133.12539551 163.82742188 133.87579102 163.99609375 134.64892578 C170.12963548 163.992347 165.69193052 193.19113596 156.5 221.375 C156.27618652 222.06432617 156.05237305 222.75365234 155.82177734 223.46386719 C147.99688603 246.99113562 135.59951137 269.07493869 121.5 289.375 C120.75363281 290.45910156 120.00726562 291.54320312 119.23828125 292.66015625 C113.2247835 301.29542604 106.69618874 309.45539048 99.99267578 317.56201172 C97.93156727 320.0654124 95.90733329 322.59821711 93.875 325.125 C89.8526575 330.04201795 85.60160928 334.7088579 81.2734375 339.35546875 C79.29070011 341.48747119 77.39146343 343.67418637 75.50390625 345.890625 C70.56217374 351.56030859 65.20062358 356.82350475 59.87573242 362.12963867 C58.06639067 363.93362085 56.26245681 365.74288665 54.45898438 367.55273438 C48.64004822 373.37497629 42.77962159 379.04575553 36.5 384.375 C34.9551874 385.7882355 33.41304675 387.20440409 31.875 388.625 C26.77764808 393.2290598 21.41778537 397.43535138 15.99609375 401.64453125 C11.0868065 405.4601452 6.29240859 409.41392759 1.5 413.375 C-6.25106348 408.69975536 -12.8891858 402.9003501 -19.67382812 396.96289062 C-21.43187525 395.43423575 -23.20409905 393.9245486 -24.984375 392.421875 C-38.79506774 380.75833787 -51.70685945 368.26019665 -64.5 355.5 C-65.38587296 354.61814529 -65.38587296 354.61814529 -66.28964233 353.71847534 C-72.58170213 347.44806668 -78.7657492 341.16728765 -84.5 334.375 C-85.44872072 333.29139007 -86.3991948 332.2093123 -87.3515625 331.12890625 C-95.1532841 322.18482449 -102.40842363 312.88865482 -109.5 303.375 C-110.04301758 302.65296387 -110.58603516 301.93092773 -111.14550781 301.18701172 C-119.75380161 289.71184408 -127.45737904 277.87301064 -134.5 265.375 C-135.00950195 264.47120605 -135.51900391 263.56741211 -136.04394531 262.63623047 C-160.55515652 218.63130677 -171.89634392 169.62682693 -158.65234375 120.19921875 C-145.7663431 77.43516914 -117.23756079 40.82378725 -77.81030273 19.51123047 C-68.60025402 14.67631117 -59.51805625 10.26589304 -49.5 7.375 C-48.7682959 7.16294922 -48.0365918 6.95089844 -47.28271484 6.73242188 C-44.8388215 6.03317055 -42.39023875 5.35503901 -39.9375 4.6875 C-39.1940332 4.48455322 -38.45056641 4.28160645 -37.68457031 4.07250977 C-25.15701824 0.82105292 -12.87280411 -0.03182253 0 0 Z " fill="#F9FAFA" transform="translate(449.5,176.625)"/>
<path d="M0 0 C0.7920282 0.00021149 1.5840564 0.00042297 2.40008545 0.00064087 C14.32449995 0.03234754 25.67469807 0.75299575 37.26318359 3.78955078 C39.49618924 4.3740026 41.73742337 4.8915212 43.98828125 5.40234375 C86.04163309 15.46128096 121.55564827 45.11692045 143.9765625 81.31640625 C153.42619069 97.11431779 159.62253968 114.42671708 163.5 132.375 C163.66371094 133.12539551 163.82742188 133.87579102 163.99609375 134.64892578 C170.12963548 163.992347 165.69193052 193.19113596 156.5 221.375 C156.27618652 222.06432617 156.05237305 222.75365234 155.82177734 223.46386719 C147.99688603 246.99113562 135.59951137 269.07493869 121.5 289.375 C120.75363281 290.45910156 120.00726562 291.54320312 119.23828125 292.66015625 C113.2247835 301.29542604 106.69618874 309.45539048 99.99267578 317.56201172 C97.93156727 320.0654124 95.90733329 322.59821711 93.875 325.125 C89.8526575 330.04201795 85.60160928 334.7088579 81.2734375 339.35546875 C79.29070011 341.48747119 77.39146343 343.67418637 75.50390625 345.890625 C70.56217374 351.56030859 65.20062358 356.82350475 59.87573242 362.12963867 C58.06639067 363.93362085 56.26245681 365.74288665 54.45898438 367.55273438 C48.64004822 373.37497629 42.77962159 379.04575553 36.5 384.375 C34.9551874 385.7882355 33.41304675 387.20440409 31.875 388.625 C26.77764808 393.2290598 21.41778537 397.43535138 15.99609375 401.64453125 C11.0868065 405.4601452 6.29240859 409.41392759 1.5 413.375 C-6.25106348 408.69975536 -12.8891858 402.9003501 -19.67382812 396.96289062 C-21.43187525 395.43423575 -23.20409905 393.9245486 -24.984375 392.421875 C-38.79506774 380.75833787 -51.70685945 368.26019665 -64.5 355.5 C-65.38587296 354.61814529 -65.38587296 354.61814529 -66.28964233 353.71847534 C-72.58170213 347.44806668 -78.7657492 341.16728765 -84.5 334.375 C-85.44872072 333.29139007 -86.3991948 332.2093123 -87.3515625 331.12890625 C-95.1532841 322.18482449 -102.40842363 312.88865482 -109.5 303.375 C-110.04301758 302.65296387 -110.58603516 301.93092773 -111.14550781 301.18701172 C-119.75380161 289.71184408 -127.45737904 277.87301064 -134.5 265.375 C-135.00950195 264.47120605 -135.51900391 263.56741211 -136.04394531 262.63623047 C-160.55515652 218.63130677 -171.89634392 169.62682693 -158.65234375 120.19921875 C-145.7663431 77.43516914 -117.23756079 40.82378725 -77.81030273 19.51123047 C-68.60025402 14.67631117 -59.51805625 10.26589304 -49.5 7.375 C-48.7682959 7.16294922 -48.0365918 6.95089844 -47.28271484 6.73242188 C-44.8388215 6.03317055 -42.39023875 5.35503901 -39.9375 4.6875 C-39.1940332 4.48455322 -38.45056641 4.28160645 -37.68457031 4.07250977 C-25.15701824 0.82105292 -12.87280411 -0.03182253 0 0 Z M-85.5 71.375 C-86.00869629 71.83600098 -86.51739258 72.29700195 -87.04150391 72.77197266 C-110.38734914 94.04592037 -124.89476427 125.32315191 -126.63427734 156.80517578 C-127.28987548 174.13359958 -125.51232509 191.02535469 -119.5 207.375 C-119.15243652 208.33672119 -119.15243652 208.33672119 -118.79785156 209.31787109 C-112.63170506 226.12994491 -103.54129505 240.1843086 -91.5 253.375 C-90.83484375 254.11105469 -90.1696875 254.84710938 -89.484375 255.60546875 C-69.79324486 276.3307969 -39.19212355 291.47268499 -10.47607422 292.48120117 C28.28610533 293.18743993 60.31482905 283.50903931 89.5 257.375 C90.23089844 256.72917969 90.96179688 256.08335937 91.71484375 255.41796875 C111.48681401 236.85900281 122.81839639 210.64252027 127.5 184.375 C127.69335938 183.29347656 127.88671875 182.21195313 128.0859375 181.09765625 C131.94411891 146.41042152 122.42605056 112.57158947 100.73046875 85.23046875 C91.6778579 74.22832042 81.52525734 65.02715027 69.5 57.375 C68.766604 56.90280029 68.03320801 56.43060059 67.27758789 55.9440918 C19.4307141 26.08577014 -44.51710502 33.23211314 -85.5 71.375 Z " fill="#0CA863" transform="translate(449.5,176.625)"/>
<path d="M0 0 C9.575388 0.16038309 18.80811509 2.19087829 28.11083984 4.3190918 C29.26737061 4.57601807 29.26737061 4.57601807 30.44726562 4.83813477 C72.65240795 14.45835661 108.45157941 43.31986192 131.38525391 79.31958008 C141.48946564 95.63324443 148.0689822 113.60983407 152.11083984 132.3190918 C152.27455078 133.0694873 152.43826172 133.81988281 152.60693359 134.59301758 C158.74047532 163.9364388 154.30277037 193.13522775 145.11083984 221.3190918 C144.88702637 222.00841797 144.66321289 222.69774414 144.43261719 223.40795898 C136.60772587 246.93522742 124.21035122 269.01903049 110.11083984 289.3190918 C108.99128906 290.94524414 108.99128906 290.94524414 107.84912109 292.60424805 C101.83562334 301.23951784 95.30702859 309.39948227 88.60351562 317.50610352 C86.54240712 320.0095042 84.51817313 322.54230891 82.48583984 325.0690918 C78.46349734 329.98610974 74.21244913 334.6529497 69.88427734 339.29956055 C67.90153996 341.43156298 66.00230327 343.61827816 64.11474609 345.8347168 C59.17301358 351.50440038 53.81146343 356.76759655 48.48657227 362.07373047 C46.67723052 363.87771265 44.87329665 365.68697844 43.06982422 367.49682617 C37.25088806 373.31906809 31.39046143 378.98984732 25.11083984 384.3190918 C23.56602724 385.7323273 22.0238866 387.14849589 20.48583984 388.5690918 C14.82021528 393.6855866 8.8240809 398.33407891 2.79296875 403.00561523 C-0.54084419 405.60879573 -3.81598572 408.2856268 -7.09619141 410.95581055 C-8.88916016 412.3190918 -8.88916016 412.3190918 -9.88916016 412.3190918 C-9.88916016 372.7190918 -9.88916016 333.1190918 -9.88916016 292.3190918 C-2.62916016 291.6590918 4.63083984 290.9990918 12.11083984 290.3190918 C15.89400973 289.55955513 19.24726591 288.84833046 22.86083984 287.6940918 C24.13386963 287.30821899 24.13386963 287.30821899 25.43261719 286.91455078 C59.16692832 276.29448987 86.32342004 253.95610299 102.79833984 222.6315918 C118.18832808 190.35991434 120.59746563 156.03425021 109.0703125 122.12597656 C99.57614323 95.67377526 81.76715622 73.44342069 58.11083984 58.3190918 C57.37381836 57.8447168 56.63679687 57.3703418 55.87744141 56.8815918 C35.75160179 44.33603055 13.50097361 38.88130604 -9.88916016 37.3190918 C-9.91381026 32.21045284 -9.93199623 27.10184821 -9.9440918 21.99316406 C-9.9491322 20.25390012 -9.95596446 18.51464044 -9.96459961 16.77539062 C-9.97667807 14.28083243 -9.98239124 11.78633006 -9.98681641 9.29174805 C-9.99197769 8.50945328 -9.99713898 7.72715851 -10.00245667 6.92115784 C-10.00265242 5.05342065 -9.9511571 3.18579976 -9.88916016 1.3190918 C-7.63276293 -0.93730543 -3.03640387 0.00935664 0 0 Z " fill="#033630" transform="translate(460.88916015625,176.680908203125)"/>
<path d="M0 0 C8.84120297 7.09955246 14.86328205 16.18709171 17 27.375 C18.32526732 39.73154002 16.53042701 51.29709642 9.25 61.75 C0.47357327 72.23670476 -9.43152641 78.38514946 -23 80.375 C-33.44802875 81.15381705 -44.16547757 81.38644994 -54 77.375 C-54.845625 77.0346875 -55.69125 76.694375 -56.5625 76.34375 C-67.5099748 71.40403576 -75.25140468 63.50308758 -79.81591797 52.38818359 C-81.87916736 46.79456667 -82.4621311 41.80959601 -82.375 35.875 C-82.38660156 35.08480469 -82.39820313 34.29460938 -82.41015625 33.48046875 C-82.3543729 22.11925887 -77.5989243 11.95851322 -69.9375 3.6875 C-51.96433987 -13.41840282 -20.09503859 -13.36003933 0 0 Z " fill="#0C1D26" transform="translate(619,640.625)"/>
<path d="M0 0 C7.5790619 6.15228067 13.89990433 15.29346953 15.46875 25.16796875 C16.28924281 40.34708576 14.41519173 52.60733183 4.71875 64.85546875 C-4.93444821 75.55091458 -17.73864184 78.56000784 -31.58984375 79.46484375 C-44.43993251 80.0298789 -57.6389213 77.92165738 -67.578125 69.1015625 C-68.22265625 68.46347656 -68.8671875 67.82539062 -69.53125 67.16796875 C-70.59085937 66.16443359 -70.59085937 66.16443359 -71.671875 65.140625 C-81.45041934 55.12667126 -83.89513369 43.28443793 -83.73828125 29.6953125 C-83.06487102 18.2219268 -77.44236536 8.50232312 -69.09375 0.73046875 C-65.14496684 -2.53243808 -61.31280499 -4.99910184 -56.53125 -6.83203125 C-55.81453125 -7.12980469 -55.0978125 -7.42757812 -54.359375 -7.734375 C-36.67715327 -13.84431467 -14.99109985 -10.85003986 0 0 Z " fill="#0C1C26" transform="translate(413.53125,641.83203125)"/>
<path d="M0 0 C7.7461397 -0.0466431 15.49224559 -0.08202981 23.23849106 -0.10362434 C26.83661665 -0.11399631 30.43464512 -0.12803271 34.03271484 -0.15087891 C37.51460962 -0.17284536 40.99641186 -0.18461793 44.47837067 -0.18975449 C46.43228715 -0.19516818 48.38616717 -0.21074155 50.34002686 -0.22659302 C74.05763944 -0.2295289 74.05763944 -0.2295289 82.75 7.5703125 C88.62239506 13.86619759 89.48693771 20.6073432 89.30859375 29 C88.66505046 35.25621826 86.37791104 40.04316813 81.8125 44.375 C77.22229171 47.94406044 71.820857 50 66 50 C70.63763488 57.07921324 75.39503042 64.06848035 80.25 71 C80.75692383 71.72952881 81.26384766 72.45905762 81.78613281 73.21069336 C86.78498998 80.34194459 86.78498998 80.34194459 94 85 C94 85.33 94 85.66 94 86 C83.77 86 73.54 86 63 86 C63 85.34 63 84.68 63 84 C63.99 84 64.98 84 66 84 C63.61859533 77.57370945 59.9920782 72.41319045 56 66.875 C54.74852541 65.12344848 53.49847815 63.37087609 52.25 61.6171875 C51.69828125 60.85003418 51.1465625 60.08288086 50.578125 59.29248047 C49 57 49 57 47.64331055 54.25561523 C46.19234949 51.76273605 46.19234949 51.76273605 43.45629883 51.34057617 C42.46654053 51.32486572 41.47678223 51.30915527 40.45703125 51.29296875 C39.48999268 51.26485107 38.5229541 51.2367334 37.52661133 51.20776367 C36.30095459 51.20107666 35.07529785 51.19438965 33.8125 51.1875 C29.914375 51.125625 26.01625 51.06375 22 51 C22.33 61.89 22.66 72.78 23 84 C24.485 84.495 24.485 84.495 26 85 C26 85.33 26 85.66 26 86 C17.42 86 8.84 86 0 86 C0 85.34 0 84.68 0 84 C1.485 83.01 1.485 83.01 3 82 C3.28654687 79.42681081 3.37852887 77.09502901 3.34057617 74.52099609 C3.34101425 73.75017197 3.34145233 72.97934784 3.34190369 72.18516541 C3.3398095 69.63100063 3.31644941 67.07748795 3.29296875 64.5234375 C3.28737502 62.75510008 3.28310387 60.98675803 3.28010559 59.21841431 C3.26863921 54.55923678 3.23915675 49.90033886 3.20599365 45.24127197 C3.1753313 40.48901146 3.16160847 35.73670587 3.14648438 30.984375 C3.11428866 21.65612701 3.06307078 12.32808673 3 3 C2.01 2.67 1.02 2.34 0 2 C0 1.34 0 0.68 0 0 Z " fill="#0B1B25" transform="translate(231,633)"/>
<path d="M0 0 C3.48049512 1.43759581 5.05541448 3.09975361 7.25 6.125 C33.75894758 40.01928169 73.70442667 60.4525841 116 66 C122.32576761 66.76570667 128.65647366 67.38914191 135 68 C135 55.46 135 42.92 135 30 C135.33 30 135.66 30 136 30 C136 69.6 136 109.2 136 150 C130.37475739 146.24983826 125.3025267 142.78618062 120.3125 138.375 C119.09917993 137.31745404 117.88563179 136.2601697 116.671875 135.203125 C115.75825195 134.40358398 115.75825195 134.40358398 114.82617188 133.58789062 C113.06812475 132.05923575 111.29590095 130.5495486 109.515625 129.046875 C95.70493226 117.38333787 82.79314055 104.88519665 70 92.125 C69.40941803 91.53709686 68.81883606 90.94919373 68.21035767 90.34347534 C61.91829787 84.07306668 55.7342508 77.79228765 50 71 C49.05127928 69.91639007 48.1008052 68.8343123 47.1484375 67.75390625 C39.3467159 58.80982449 32.09157637 49.51365482 25 40 C24.45698242 39.27796387 23.91396484 38.55592773 23.35449219 37.81201172 C16.84581239 29.13570564 10.78327855 20.2956602 5.1875 11 C4.66534912 10.13270264 4.14319824 9.26540527 3.60522461 8.37182617 C0 2.26554206 0 2.26554206 0 0 Z " fill="#059159" transform="translate(315,440)"/>
<path d="M0 0 C0.99 0.495 0.99 0.495 2 1 C-3.27717427 10.62595676 -8.70873181 19.98882263 -15 29 C-15.74765625 30.08539063 -16.4953125 31.17078125 -17.265625 32.2890625 C-23.27631927 40.92405785 -29.80501226 49.08184287 -36.50732422 57.18701172 C-38.56843273 59.6904124 -40.59266671 62.22321711 -42.625 64.75 C-46.6473425 69.66701795 -50.89839072 74.3338579 -55.2265625 78.98046875 C-57.20929989 81.11247119 -59.10853657 83.29918637 -60.99609375 85.515625 C-65.93782626 91.18530859 -71.29937642 96.44850475 -76.62426758 101.75463867 C-78.43360933 103.55862085 -80.23754319 105.36788665 -82.04101562 107.17773438 C-87.85995178 112.99997629 -93.72037841 118.67075553 -100 124 C-101.5448126 125.4132355 -103.08695325 126.82940409 -104.625 128.25 C-110.29062456 133.3664948 -116.28675894 138.01498711 -122.31787109 142.68652344 C-125.65168403 145.28970393 -128.92682557 147.966535 -132.20703125 150.63671875 C-134 152 -134 152 -135 152 C-135 124.94 -135 97.88 -135 70 C-131.7 70 -128.4 70 -125 70 C-113.33757173 69.20435857 -102.21639424 67.29790208 -91 64 C-90.21818359 63.77747559 -89.43636719 63.55495117 -88.63085938 63.32568359 C-52.53298312 52.88561154 -21.62776452 30.75707215 0 0 Z " fill="#010C10" transform="translate(586,437)"/>
<path d="M0 0 C3.91209308 1.59415503 6.37218086 4.13893332 9.3125 7.125 C10.04098145 7.86314941 10.04098145 7.86314941 10.78417969 8.61621094 C14.12217223 12.02517741 17.29416353 15.54459156 20.390625 19.171875 C22.56614621 21.64309813 24.91000653 23.9204953 27.2578125 26.2265625 C29.04715827 28.04800415 30.71288532 29.93714279 32.375 31.875 C34.96634205 34.8846753 37.67254783 37.71088616 40.5 40.5 C43.95389529 43.90706281 47.17341581 47.43037534 50.328125 51.11328125 C51.94204468 52.93459716 53.62497231 54.62267968 55.375 56.3125 C59.34229265 60.18962691 62.73400728 64.50062273 66.1796875 68.83984375 C66.78039062 69.55269531 67.38109375 70.26554687 68 71 C68.33 71 68.66 71 69 71 C68.96519531 69.84242188 68.93039062 68.68484375 68.89453125 67.4921875 C68.86637793 65.9531396 68.83907944 64.41407589 68.8125 62.875 C68.78736328 62.11445313 68.76222656 61.35390625 68.73632812 60.5703125 C68.67217779 55.60935332 69.27939771 52.31475666 72 48 C75.24706405 45.05734821 77.91352651 44.081998 82.3125 43.75 C86.43004024 44.02915527 88.5754061 44.7169374 92 47 C96.49044312 52.1968962 96.50545931 56.35096226 96.25 62.875 C96.23195313 63.75414062 96.21390625 64.63328125 96.1953125 65.5390625 C96.14848379 67.6931832 96.07674994 69.84673774 96 72 C97.23363281 70.54980469 97.23363281 70.54980469 98.4921875 69.0703125 C104.37821765 62.19146866 110.31515121 55.52412665 116.796875 49.19921875 C119.44218835 46.55859567 121.86082959 43.76832597 124.2890625 40.9296875 C126.74573119 38.15892418 129.39359977 35.597071 132.03125 33 C133.93986455 31.06108998 135.72710552 29.06300449 137.5 27 C140.51641923 23.48998489 143.73095132 20.24948724 147.02734375 17.00390625 C149.56367578 14.4273947 151.90227257 11.70573699 154.2578125 8.96484375 C157.03176921 5.83636791 160.00383929 2.91419887 163 0 C165.46266891 0.95329119 166.72822599 1.49467021 168 3.859375 C168 6 168 6 166.375 8.078125 C165.59125 8.79484375 164.8075 9.5115625 164 10.25 C160.9707583 13.11042947 158.0777743 15.95325116 155.375 19.125 C152.63640144 22.31792828 149.7457303 25.27646534 146.74609375 28.22265625 C144.93522357 30.06593574 143.24678646 31.97822799 141.5625 33.9375 C139.14382221 36.74576347 136.64100317 39.39970593 134 42 C131.37959391 44.58009215 128.89676588 47.21103607 126.5 50 C124.10323412 52.78896393 121.62040609 55.41990785 119 58 C115.12008577 61.82738154 111.51893113 65.84054433 108 70 C107.14921875 70.87736816 106.2984375 71.75473633 105.421875 72.65869141 C102.51448125 76.16654934 102.41952487 78.95075125 102.51171875 83.515625 C102.51879349 84.21266541 102.52586823 84.90970581 102.53315735 85.62786865 C102.56094563 87.8363792 102.62360216 90.0422692 102.6875 92.25 C102.71260716 93.74735872 102.73541609 95.24475784 102.75585938 96.7421875 C102.81187148 100.49555224 102.90299271 104.24745945 103 108 C103 108.66 103 109.32 103 110 C104.59368471 111.8567897 104.59368471 111.8567897 106.69140625 113.8515625 C107.47193359 114.62113281 108.25246094 115.39070313 109.05664062 116.18359375 C110.29704102 117.39208984 110.29704102 117.39208984 111.5625 118.625 C116.72627703 123.67643055 121.78184096 128.72735129 126.45874023 134.23779297 C128.06652176 136.07605798 129.75606086 137.79111363 131.5 139.5 C133.93389732 141.89053167 136.21355559 144.35046262 138.4375 146.9375 C140.85617779 149.74576347 143.35899683 152.39970593 146 155 C149.26810607 158.21773064 152.28664198 161.57691189 155.2734375 165.0546875 C157.01082668 167.01219838 158.8212597 168.85302549 160.6875 170.6875 C166.08634883 176.04978777 166.08634883 176.04978777 168 179 C168 181.1875 168 181.1875 167 183 C165.68818985 183.70807934 164.35549866 184.37964074 163 185 C159.3738002 181.47299715 155.86075245 177.90032831 152.5625 174.0625 C150.14382221 171.25423653 147.64100317 168.60029407 145 166 C141.72797872 162.7784145 138.70683945 159.41407855 135.71484375 155.93359375 C134.03995701 154.04505403 132.30052413 152.26844352 130.5 150.5 C128.06610268 148.10946833 125.78644441 145.64953738 123.5625 143.0625 C121.14382221 140.25423653 118.64100317 137.60029407 116 135 C112.78565269 131.8288397 109.78249037 128.54417247 106.83984375 125.12109375 C104.80491181 122.77508942 102.71709033 120.4826355 100.625 118.1875 C95.11180017 112.07853415 89.57025881 105.85538822 85 99 C82.59171217 98.3585322 82.59171217 98.3585322 80 99 C77.79870458 100.96127056 77.79870458 100.96127056 75.875 103.6875 C75.08996094 104.69941406 74.30492187 105.71132813 73.49609375 106.75390625 C72.88096924 107.55852295 72.88096924 107.55852295 72.25341797 108.37939453 C64.19469774 118.79890853 55.11042672 128.31766296 46.04199219 137.84912109 C42.80401487 141.25975957 39.58927895 144.69204263 36.375 148.125 C35.75931152 148.78201904 35.14362305 149.43903809 34.50927734 150.1159668 C23.64178154 161.71512141 12.80938713 173.34669062 2 185 C-1.16115776 183.63016497 -1.9927092 183.0109362 -4 180 C3.2569889 172.09702913 10.57108999 164.25068349 17.93139648 156.44384766 C22.3211367 151.78681525 26.69848212 147.11864148 31.0625 142.4375 C32.20181055 141.2161343 33.34113352 139.99478018 34.48046875 138.7734375 C36.29931093 136.82354001 38.11794897 134.87345399 39.93603516 132.92285156 C41.91427164 130.80140532 43.89446178 128.68179731 45.875 126.5625 C46.76650757 125.60525024 46.76650757 125.60525024 47.67602539 124.62866211 C48.25473389 124.00999268 48.83344238 123.39132324 49.4296875 122.75390625 C50.00195068 122.12460205 50.57421387 121.49529785 51.16381836 120.84692383 C53 119 53 119 55.18188477 117.39331055 C58.96544762 114.41819048 61.05884971 111.86411089 61.80957031 107.07788086 C62.2107212 103.11351342 62.25970944 99.17448469 62.20776367 95.19262695 C62.18758741 92.69830614 62.26848222 90.22104342 62.35742188 87.72851562 C62.44880771 80.41499582 62.3613014 74.54135886 57.16267395 68.99946594 C54.87866567 66.86854599 52.44696478 64.93941375 50 63 C48.71516702 61.61484707 47.45612419 60.20420386 46.25 58.75 C43.55664948 55.59493225 40.70430848 52.68285087 37.74609375 49.77734375 C35.93522357 47.93406426 34.24678646 46.02177201 32.5625 44.0625 C30.14382221 41.25423653 27.64100317 38.60029407 25 36 C21.72797872 32.7784145 18.70683945 29.41407855 15.71484375 25.93359375 C13.50440699 23.44118784 11.14158441 21.13002433 8.765625 18.796875 C6.24751953 16.23420129 3.91377295 13.52543569 1.578125 10.796875 C0.03260929 8.97823918 0.03260929 8.97823918 -1.71484375 7.39453125 C-2.13894531 6.93433594 -2.56304687 6.47414062 -3 6 C-2.72963853 3.02602384 -2.14553974 2.14553974 0 0 Z " fill="#111111" transform="translate(368,249)"/>
<path d="M0 0 C7.79796992 -0.02326744 15.59593156 -0.04098804 23.39392757 -0.05181217 C27.01564201 -0.05700968 30.63733253 -0.06404981 34.2590332 -0.07543945 C37.76035863 -0.08638044 41.26166118 -0.09230037 44.7630024 -0.09487724 C46.73531474 -0.09759827 48.707618 -0.10539217 50.67991638 -0.11329651 C71.12936704 -0.11456194 71.12936704 -0.11456194 80 6 C85.67950284 11.69121315 88.05568399 17.50065767 88.25 25.5 C88.06691177 33.95638757 85.28013867 39.55985457 79.4375 45.6875 C69.45371968 53.28306296 55.10757812 51.34466227 43.3125 51.1875 C41.33920292 51.17242677 39.3658947 51.15874303 37.39257812 51.14648438 C32.59477371 51.11368595 27.79751163 51.06204913 23 51 C23.06885413 55.5029078 23.1568066 60.00488488 23.26245117 64.50708008 C23.29569818 66.03855059 23.32373093 67.57014356 23.34643555 69.10180664 C23.37998718 71.30407887 23.4322991 73.50522912 23.48828125 75.70703125 C23.49467117 76.39150833 23.5010611 77.07598541 23.50764465 77.78120422 C23.6396279 82.05150522 23.81256897 82.81256897 27 86 C18.09 86 9.18 86 0 86 C0 85.34 0 84.68 0 84 C1.485 83.505 1.485 83.505 3 83 C3.06941058 72.73426419 3.12276564 62.4685839 3.15543652 52.20266151 C3.17111433 47.43613033 3.19239099 42.6697593 3.22631836 37.90332031 C3.25883666 33.3062418 3.27683706 28.70931764 3.28463173 24.11213303 C3.29018882 22.35537662 3.30104003 20.59862897 3.31719017 18.84193802 C3.33886478 16.38743872 3.34197117 13.93358299 3.34057617 11.47900391 C3.351362 10.74748611 3.36214783 10.01596832 3.3732605 9.26228333 C3.39471655 7.03142521 3.39471655 7.03142521 3 4 C2.01 3.34 1.02 2.68 0 2 C0 1.34 0 0.68 0 0 Z " fill="#0D1D26" transform="translate(441,633)"/>
<path d="M0 0 C9.57 0 19.14 0 29 0 C28.67 2.31 28.34 4.62 28 7 C28.83467148 8.99975968 28.83467148 8.99975968 30.4375 10.4375 C30.9955835 11.01491943 31.55366699 11.59233887 32.12866211 12.18725586 C32.74620361 12.78546143 33.36374512 13.38366699 34 14 C34.62849854 14.6401001 35.25699707 15.2802002 35.90454102 15.93969727 C37.91707659 17.98010523 39.95621786 19.99093178 42 22 C43.34374215 23.34115243 44.68620586 24.68358709 46.02734375 26.02734375 C47.97239988 27.97432855 49.91914893 29.9193155 51.87402344 31.85644531 C55.49734149 35.45307927 58.95477442 39.11080731 62.23828125 43.0234375 C65.14281822 46.28218629 68.29579542 49.3013013 71.44628906 52.32128906 C72.66717446 53.51137427 73.8382524 54.75211921 75 56 C75 56.66 75 57.32 75 58 C75.66 58 76.32 58 77 58 C76.93319053 50.34587132 76.84346046 42.69226114 76.73754883 35.03857422 C76.70422954 32.43316812 76.67621974 29.82768862 76.65356445 27.22216797 C76.62014746 23.48373027 76.56783754 19.74596959 76.51171875 16.0078125 C76.50532883 14.83695099 76.4989389 13.66608948 76.49235535 12.45974731 C76.47256119 11.37877777 76.45276703 10.29780823 76.43237305 9.18408203 C76.42126999 8.22921906 76.41016693 7.27435608 76.39872742 6.29055786 C76.26714737 5.53467377 76.13556732 4.77878967 76 4 C75.01 3.34 74.02 2.68 73 2 C73 1.34 73 0.68 73 0 C81.25 0 89.5 0 98 0 C98 0.66 98 1.32 98 2 C97.01 2.66 96.02 3.32 95 4 C94.69750932 6.55638912 94.59043274 8.87211243 94.61181641 11.43139648 C94.60655945 12.19740173 94.60130249 12.96340698 94.59588623 13.75262451 C94.5826503 16.29231989 94.59143756 18.83139166 94.6015625 21.37109375 C94.59954258 23.13224915 94.59663183 24.89340374 94.59286499 26.65455627 C94.58843661 30.34929349 94.59488836 34.0438134 94.60888672 37.73852539 C94.62596646 42.477949 94.61614848 47.21686254 94.59816933 51.95626736 C94.58733462 55.59450633 94.59077659 59.23262417 94.5985527 62.87086678 C94.60055623 64.61839928 94.59809009 66.36594272 94.59111404 68.11346245 C94.58350599 70.55567465 94.59509461 72.99705856 94.61181641 75.43920898 C94.60574371 76.16398941 94.59967102 76.88876984 94.59341431 77.63551331 C94.64857315 81.97776218 94.76346983 82.76346983 98 86 C89.09 86 80.18 86 71 86 C71 85.34 71 84.68 71 84 C71.66 84 72.32 84 73 84 C71.56096993 79.56232067 69.36699188 76.8841802 66.1875 73.5 C65.6819458 72.96028564 65.1763916 72.42057129 64.65551758 71.86450195 C58.41300125 65.2678003 51.93994023 58.88961044 45.4753418 52.51171875 C40.96236598 48.04374232 36.60602444 43.52549345 32.47241211 38.70385742 C30.62774372 36.56922955 28.68607153 34.55306122 26.6875 32.5625 C26.03136719 31.90378906 25.37523437 31.24507812 24.69921875 30.56640625 C23.0704976 28.91965896 23.0704976 28.91965896 21 28 C21.06693211 35.61750631 21.15671224 43.23449664 21.26245117 50.8515625 C21.29572432 53.44329699 21.32374871 56.03510435 21.34643555 58.62695312 C21.37993675 62.35057664 21.43225223 66.07353081 21.48828125 69.796875 C21.49467117 70.95741394 21.5010611 72.11795288 21.50764465 73.31365967 C21.52743881 74.39447815 21.54723297 75.47529663 21.56762695 76.58886719 C21.57873001 77.53928894 21.58983307 78.48971069 21.60127258 79.46893311 C21.87345046 82.48154414 21.87345046 82.48154414 25 86 C16.75 86 8.5 86 0 86 C0.99 85.01 1.98 84.02 3 83 C3.29596177 80.40013366 3.40997083 78.0395314 3.38818359 75.43920898 C3.39344055 74.67145142 3.39869751 73.90369385 3.40411377 73.1126709 C3.41732347 70.57360524 3.4085734 68.03516583 3.3984375 65.49609375 C3.40045775 63.73397196 3.40336879 61.97185098 3.40713501 60.20973206 C3.41155949 56.5167749 3.40512259 52.82403539 3.39111328 49.13110352 C3.37400871 44.39048949 3.38386971 39.65038449 3.40183067 34.90978909 C3.41265451 31.27159262 3.40922886 27.63351751 3.4014473 23.99531746 C3.39944205 22.24695844 3.40191589 20.49858851 3.40888596 18.75024223 C3.41647896 16.31032859 3.40492786 13.87124785 3.38818359 11.43139648 C3.39729263 10.3411895 3.39729263 10.3411895 3.40658569 9.22895813 C3.41341696 7.01181184 3.41341696 7.01181184 3 4 C2.01 3.34 1.02 2.68 0 2 C0 1.34 0 0.68 0 0 Z " fill="#0E1E27" transform="translate(688,633)"/>
<path d="M0 0 C10.23 0 20.46 0 31 0 C31 0.66 31 1.32 31 2 C30.01 2.66 29.02 3.32 28 4 C28.5127374 9.27080774 29.84152233 13.40710715 32.24707031 18.14111328 C32.58055984 18.81685394 32.91404938 19.4925946 33.25764465 20.18881226 C34.3545152 22.40442435 35.46572766 24.61246027 36.578125 26.8203125 C37.35001072 28.36745554 38.12130269 29.91489493 38.89202881 31.46261597 C40.50633569 34.69858454 42.12778734 37.93084226 43.75439453 41.16064453 C45.83370196 45.29077433 47.89492108 49.42962376 49.95085526 53.5714283 C51.53931171 56.76645075 53.13730616 59.95662788 54.73818207 63.14544296 C55.50178999 64.66933499 56.26245499 66.19470552 57.02005768 67.72159195 C58.08218909 69.85862193 59.15702982 71.9887793 60.23535156 74.11767578 C60.54307999 74.74325378 60.85080841 75.36883179 61.16786194 76.0133667 C63.38021773 80.33407753 65.36188048 82.36188048 69 86 C58.77 86 48.54 86 38 86 C38 85.34 38 84.68 38 84 C39.32 83.67 40.64 83.34 42 83 C41.49339844 81.69675781 41.49339844 81.69675781 40.9765625 80.3671875 C40.53054687 79.21476563 40.08453125 78.06234375 39.625 76.875 C38.96371094 75.16957031 38.96371094 75.16957031 38.2890625 73.4296875 C37.11785816 70.31357414 36.05270518 67.15811555 35 64 C21.8 64.33 8.6 64.66 -5 65 C-11.4472136 75.65835921 -11.4472136 75.65835921 -11 83 C-10.01 83.99 -9.02 84.98 -8 86 C-17.24 86 -26.48 86 -36 86 C-36 85.34 -36 84.68 -36 84 C-35.41226807 83.80623779 -34.82453613 83.61247559 -34.21899414 83.4128418 C-31.08606342 81.41809319 -30.00289417 78.66230207 -28.49609375 75.39453125 C-28.17633072 74.72705368 -27.85656769 74.05957611 -27.52711487 73.37187195 C-26.48555699 71.19075741 -25.46154394 69.00188454 -24.4375 66.8125 C-23.72054994 65.30283926 -23.00244331 63.79372726 -22.28320312 62.28515625 C-20.84627931 59.26682638 -19.41596518 56.24551434 -17.99169922 53.22119141 C-15.80257566 48.57486968 -13.58003268 43.94491873 -11.35302734 39.31665039 C-10.03420728 36.57121064 -8.72475093 33.82149909 -7.41796875 31.0703125 C-5.81649715 27.70034861 -4.1929065 24.3425195 -2.55078125 20.9921875 C-1.8046849 19.45312626 -1.058591 17.91406383 -0.3125 16.375 C0.02716797 15.69373047 0.36683594 15.01246094 0.71679688 14.31054688 C2.41035067 10.79040003 3.71564294 7.92540782 3 4 C2.01 3.34 1.02 2.68 0 2 C0 1.34 0 0.68 0 0 Z " fill="#0B1C26" transform="translate(59,633)"/>
<path d="M0 0 C0.66 0 1.32 0 2 0 C2 7.26 2 14.52 2 22 C1.34 22 0.68 22 0 22 C-0.99 20.515 -0.99 20.515 -2 19 C-4.50060109 18.5224433 -4.50060109 18.5224433 -7.45947266 18.56762695 C-8.60050446 18.54783279 -9.74153625 18.52803864 -10.91714478 18.50764465 C-12.15362762 18.50125473 -13.39011047 18.49486481 -14.6640625 18.48828125 C-16.5575795 18.46135445 -16.5575795 18.46135445 -18.48934937 18.43388367 C-21.84642143 18.38879765 -25.20312448 18.35655055 -28.56036377 18.33044434 C-31.98569073 18.30067385 -35.41078481 18.25413165 -38.8359375 18.20898438 C-45.55720574 18.12381653 -52.27843716 18.05711214 -59 18 C-59 24.93 -59 31.86 -59 39 C-53.62401907 38.92611211 -48.24973777 38.84339081 -42.87451172 38.73754883 C-41.0451735 38.70424974 -39.2157313 38.67623343 -37.38623047 38.65356445 C-34.75963944 38.62010923 -32.13400559 38.56780037 -29.5078125 38.51171875 C-28.68693146 38.50532883 -27.86605042 38.4989389 -27.02029419 38.49235535 C-24.47385626 38.46057783 -24.47385626 38.46057783 -21 38 C-20.34 37.01 -19.68 36.02 -19 35 C-18.34 35 -17.68 35 -17 35 C-17 41.93 -17 48.86 -17 56 C-17.66 56 -18.32 56 -19 56 C-19.36327393 55.5155542 -19.72654785 55.0311084 -20.10083008 54.53198242 C-23.14394923 52.07722311 -26.635768 52.51847387 -30.38671875 52.48828125 C-31.20372757 52.47033005 -32.02073639 52.45237885 -32.86250305 52.43388367 C-35.47078294 52.37972212 -38.07887925 52.34586692 -40.6875 52.3125 C-42.45640579 52.27933201 -44.22528733 52.24484283 -45.99414062 52.20898438 C-50.32945433 52.12150503 -54.66392782 52.06148953 -59 52 C-59 60.25 -59 68.5 -59 77 C-51.48925721 76.95968879 -43.97899981 76.90264517 -36.46865368 76.81609726 C-32.98128051 76.77657934 -29.49416144 76.7444126 -26.0065918 76.72900391 C-21.99747025 76.71096949 -17.98929895 76.66103871 -13.98046875 76.609375 C-12.72727341 76.60814636 -11.47407806 76.60691772 -10.1829071 76.60565186 C-9.02193008 76.58593323 -7.86095306 76.5662146 -6.66479492 76.54589844 C-5.12924202 76.53257477 -5.12924202 76.53257477 -3.56266785 76.51898193 C-0.84614239 76.24371891 -0.84614239 76.24371891 0.72904968 73.96588135 C1.14846329 73.3171405 1.56787689 72.66839966 2 72 C2.66 72 3.32 72 4 72 C4 79.59 4 87.18 4 95 C3.34 95 2.68 95 2 95 C1.62223923 94.35125916 1.24447845 93.70251831 0.85527039 93.03411865 C-0.93245894 90.64601329 -0.93245894 90.64601329 -4.39787292 90.48101807 C-5.82641744 90.45167161 -7.25551351 90.44435287 -8.68432617 90.45410156 C-9.4650499 90.44376389 -10.24577362 90.43342621 -11.05015564 90.42277527 C-13.631302 90.39327202 -16.21166679 90.39184656 -18.79296875 90.390625 C-20.58231611 90.37564837 -22.37164961 90.35892232 -24.16096497 90.34051514 C-28.87096785 90.29677106 -33.58078425 90.27682698 -38.29095459 90.26177979 C-43.09707702 90.24223406 -47.90299731 90.20026127 -52.70898438 90.16015625 C-62.13926067 90.08477778 -71.56949189 90.03453263 -81 90 C-81 89.34 -81 88.68 -81 88 C-79.515 87.01 -79.515 87.01 -78 86 C-77.69747917 83.46816017 -77.5904088 81.17925571 -77.61181641 78.64453125 C-77.60655945 77.88667328 -77.60130249 77.12881531 -77.59588623 76.34799194 C-77.58265245 73.83595334 -77.59143591 71.32454535 -77.6015625 68.8125 C-77.59954273 67.0713692 -77.5966321 65.33023922 -77.59286499 63.58911133 C-77.58843707 59.93725543 -77.59488763 56.28561943 -77.60888672 52.63378906 C-77.62597897 47.94583128 -77.61614028 43.2583887 -77.59816933 38.57044983 C-77.58734405 34.97428484 -77.59077202 31.3782426 -77.5985527 27.78207397 C-77.6005582 26.05325256 -77.59808324 24.3244201 -77.59111404 22.59561157 C-77.58352002 20.18192908 -77.59507409 17.76908832 -77.61181641 15.35546875 C-77.60270737 14.2769313 -77.60270737 14.2769313 -77.59341431 13.17660522 C-77.58662696 10.98220723 -77.58662696 10.98220723 -78 8 C-78.99 7.34 -79.98 6.68 -81 6 C-81 5.34 -81 4.68 -81 4 C-80.01472321 3.99413376 -79.02944641 3.98826752 -78.01431274 3.98222351 C-68.74360311 3.92509052 -59.47313019 3.85237888 -50.20266151 3.76428509 C-45.43623153 3.71949571 -40.66988871 3.68025878 -35.90332031 3.65356445 C-31.30607791 3.62761655 -26.70916945 3.58727543 -22.11213303 3.53681374 C-20.3554435 3.52008715 -18.59869615 3.50860908 -16.84193802 3.50238609 C-14.38726776 3.49280751 -11.93346308 3.46482531 -9.47900391 3.43237305 C-8.38172722 3.43452568 -8.38172722 3.43452568 -7.26228333 3.4367218 C-5.03037317 3.4296965 -5.03037317 3.4296965 -2 3 C-1.34 2.01 -0.68 1.02 0 0 Z " fill="#0A1B24" transform="translate(215,629)"/>
<path d="M0 0 C6.9872893 5.00998348 11.61197707 10.64700063 14 19 C15.04859748 29.85366482 13.5521796 38.64529985 6.67578125 47.2109375 C1.61204159 52.61698124 -4.10862861 55.98401893 -11.58203125 56.3359375 C-13.32540713 56.35972883 -15.06896368 56.37243409 -16.8125 56.375 C-17.67681641 56.39949219 -18.54113281 56.42398438 -19.43164062 56.44921875 C-27.46682333 56.48560448 -33.48803733 54.06433288 -39.25 48.375 C-46.1919575 40.90009695 -47.64298339 33.18364889 -47.5390625 23.26245117 C-47.16471738 14.859339 -44.37768809 8.98104368 -38.3125 3.125 C-27.2632286 -5.57861602 -12.331761 -7.30057378 0 0 Z " fill="#FCFCFC" transform="translate(603,650)"/>
<path d="M0 0 C1.37993632 0.74584129 2.73570961 1.53826185 4.0625 2.375 C4.77019531 2.79910156 5.47789062 3.22320313 6.20703125 3.66015625 C12.04834065 7.55075008 15.44024105 12.55988746 17.67578125 19.1953125 C19.07358844 27.07386214 19.55237803 37.43350603 15.0625 44.375 C10.26723528 50.87789523 5.25238456 56.80298189 -2.9375 58.375 C-11.97370231 59.35228607 -21.87419043 59.99656746 -29.859375 55.0546875 C-35.95991936 50.12379638 -41.63577509 44.34806508 -42.9375 36.375 C-43.9377087 25.58865844 -43.29866524 17.10248162 -36.328125 8.35546875 C-27.39087973 -1.38120901 -12.42025139 -5.24217265 0 0 Z " fill="#FCFCFC" transform="translate(391.9375,647.625)"/>
<path d="M0 0 C0.66 0 1.32 0 2 0 C2.33 1.32 2.66 2.64 3 4 C42.105 3.505 42.105 3.505 82 3 C82.33 2.01 82.66 1.02 83 0 C83.66 0 84.32 0 85 0 C85 7.26 85 14.52 85 22 C84.34 22 83.68 22 83 22 C82.01 20.515 82.01 20.515 81 19 C77.99585431 18.48815355 77.99585431 18.48815355 74.4609375 18.48828125 C72.50800781 18.43510742 72.50800781 18.43510742 70.515625 18.38085938 C69.13542191 18.35775769 67.75521343 18.33497536 66.375 18.3125 C64.98694648 18.27933555 63.59892393 18.2448467 62.2109375 18.20898438 C58.80737293 18.12625885 55.4040741 18.05718743 52 18 C52.06117318 26.9448846 52.13825135 35.88944869 52.23571491 44.83401203 C52.28046845 48.98722207 52.31971332 53.14033288 52.34643555 57.29370117 C52.3724192 61.30094276 52.41278584 65.30780352 52.46318626 69.3148098 C52.47988857 70.84458878 52.49138188 72.37443369 52.49761391 73.90429115 C52.50721892 76.04508133 52.53523221 78.18488987 52.56762695 80.32543945 C52.58428154 82.15411308 52.58428154 82.15411308 52.60127258 84.01972961 C52.73940994 87.34650437 52.73940994 87.34650437 56 90 C47.09 90 38.18 90 29 90 C29.99 89.01 30.98 88.02 32 87 C32.47581531 83.91054356 32.47581531 83.91054356 32.43237305 80.32543945 C32.4425647 79.652005 32.45275635 78.97857056 32.46325684 78.284729 C32.49342906 76.06082893 32.50265875 73.83735926 32.51171875 71.61328125 C32.52856239 70.07055729 32.54671221 68.52784708 32.56611633 66.9851532 C32.61365704 62.92622169 32.64343983 58.86734591 32.66955566 54.80822754 C32.69934082 50.66565948 32.74587811 46.52328357 32.79101562 42.38085938 C32.87709496 34.25400056 32.9444194 26.12712434 33 18 C28.90601199 18.06877778 24.8129309 18.15669235 20.71972656 18.26245117 C19.32693911 18.29572873 17.93401589 18.32375197 16.54101562 18.34643555 C14.54008622 18.37992689 12.53953079 18.43381305 10.5390625 18.48828125 C8.73236084 18.52755737 8.73236084 18.52755737 6.88916016 18.56762695 C5.9357373 18.71031006 4.98231445 18.85299316 4 19 C3.34 19.99 2.68 20.98 2 22 C1.34 22 0.68 22 0 22 C0 14.74 0 7.48 0 0 Z " fill="#0B1C26" transform="translate(793,629)"/>
<path d="M0 0 C3.14655085 0.3024145 4.07531581 1.07772085 6.32421875 3.3984375 C7.10410156 4.38070313 7.88398438 5.36296875 8.6875 6.375 C9.47511719 7.35210937 10.26273437 8.32921875 11.07421875 9.3359375 C13 12 13 12 14 15 C13.59448242 17.22973633 13.59448242 17.22973633 12.85546875 19.83203125 C12.59137207 20.78972412 12.32727539 21.74741699 12.05517578 22.73413086 C11.62567627 24.25792358 11.62567627 24.25792358 11.1875 25.8125 C8.80934876 34.52988936 6.90534478 42.99338042 6 52 C7.22976563 51.72285156 8.45953125 51.44570313 9.7265625 51.16015625 C11.35935584 50.79418533 12.99216941 50.42830468 14.625 50.0625 C15.83736328 49.78889648 15.83736328 49.78889648 17.07421875 49.50976562 C21.36898181 48.54955437 25.64777849 47.66903081 30 47 C25.07890795 52.70513044 16.51853569 55.09705212 9.25 55.8125 C7.83434891 55.89485706 6.41762494 55.96550028 5 56 C5 58.31 5 60.62 5 63 C9.95 63 14.9 63 20 63 C19.67 65.64 19.34 68.28 19 71 C14.38 71 9.76 71 5 71 C5 72.98 5 74.96 5 77 C17.12566466 76.47981616 27.84906187 74.69894733 38.94140625 69.671875 C41 69 41 69 44 70 C30.9329438 77.15907866 19.17829805 82 4 82 C4 88.93 4 95.86 4 103 C23.10572788 101.99443537 39.96503293 98.02288532 57.22924805 89.63232422 C57.81359619 89.42365723 58.39794434 89.21499023 59 89 C59.66 89.33 60.32 89.66 61 90 C56.36563761 92.7264935 51.69919836 95.38692418 47 98 C46.14019531 98.4846875 45.28039062 98.969375 44.39453125 99.46875 C38.20912096 102.6169523 31.71958794 104.22736356 25 105.8125 C24.08605469 106.03188232 23.17210937 106.25126465 22.23046875 106.47729492 C15.74742347 107.91314106 9.62913711 108.25243934 3 108 C2.67 110.64 2.34 113.28 2 116 C1.34 116 0.68 116 0 116 C-0.495 112.04 -0.495 112.04 -1 108 C-1.969375 107.97421875 -2.93875 107.9484375 -3.9375 107.921875 C-22.54026228 107.22125453 -37.53171094 101.85079126 -53.75 92.75 C-54.66386475 92.23808105 -54.66386475 92.23808105 -55.59619141 91.71582031 C-59.87741185 89.2451763 -59.87741185 89.2451763 -61 87 C-57.36764798 88.39756557 -53.92338216 90.02330471 -50.4375 91.75 C-34.50419267 99.07216034 -18.33543492 101.99975751 -1 104 C-1 96.74 -1 89.48 -1 82 C-3.64 82 -6.28 82 -9 82 C-21.53702324 80.20541109 -32.29806344 75.72767371 -43 69 C-43.495 68.01 -43.495 68.01 -44 67 C-43.31421875 67.2784375 -42.6284375 67.556875 -41.921875 67.84375 C-28.32432014 73.22460059 -16.58463084 76.21164158 -2 77 C-2 75.02 -2 73.04 -2 71 C-6.62 71 -11.24 71 -16 71 C-16.495 67.04 -16.495 67.04 -17 63 C-12.05 63 -7.1 63 -2 63 C-2 60.69 -2 58.38 -2 56 C-2.928125 56.0825 -3.85625 56.165 -4.8125 56.25 C-12.05352694 56.26474751 -18.99840338 52.7807892 -25 49 C-22.39579982 47.69789991 -21.25729641 48.1867672 -18.4296875 48.77734375 C-17.53378906 48.96103516 -16.63789063 49.14472656 -15.71484375 49.33398438 C-14.77769531 49.53314453 -13.84054687 49.73230469 -12.875 49.9375 C-11.93011719 50.13279297 -10.98523438 50.32808594 -10.01171875 50.52929688 C-7.67316334 51.0135432 -5.33608912 51.50401572 -3 52 C-3.89667114 41.93563948 -6.01839955 32.69393149 -9.05517578 23.05981445 C-9.31927246 22.200896 -9.58336914 21.34197754 -9.85546875 20.45703125 C-10.09934326 19.69366455 -10.34321777 18.93029785 -10.59448242 18.14379883 C-11.05957319 15.68506191 -10.87285587 14.3336813 -10 12 C-8.36019203 9.83601409 -6.71420567 7.79308933 -4.9375 5.75 C-4.46505859 5.19570313 -3.99261719 4.64140625 -3.50585938 4.0703125 C-2.34341033 2.708251 -1.17252145 1.35340044 0 0 Z " fill="#0B0B0B" transform="translate(449,348)"/>
<path d="M0 0 C1.06486855 0.89301656 2.12675041 1.7895947 3.1875 2.6875 C3.77917969 3.18636719 4.37085938 3.68523437 4.98046875 4.19921875 C7.41943901 6.37400654 9.6941221 8.68433466 12 11 C13.75738472 12.74652429 15.5152189 14.49259642 17.2734375 16.23828125 C18.78913247 17.7465923 20.30434063 19.2553905 21.81933594 20.7644043 C22.8519611 21.7920057 23.88548268 22.81870714 24.91992188 23.84448242 C30.30377786 29.18461601 35.63556843 34.52246934 40.53564453 40.3190918 C42.11508591 42.13210511 43.78328503 43.81711316 45.5 45.5 C47.93389732 47.89053167 50.21355559 50.35046262 52.4375 52.9375 C54.85617779 55.74576347 57.35899683 58.39970593 60 61 C63.26810607 64.21773064 66.28664198 67.57691189 69.2734375 71.0546875 C71.01082668 73.01219838 72.8212597 74.85302549 74.6875 76.6875 C80.08634883 82.04978777 80.08634883 82.04978777 82 85 C82 87.1875 82 87.1875 81 89 C79.68818985 89.70807934 78.35549866 90.37964074 77 91 C73.3738002 87.47299715 69.86075245 83.90032831 66.5625 80.0625 C64.14382221 77.25423653 61.64100317 74.60029407 59 72 C55.72797872 68.7784145 52.70683945 65.41407855 49.71484375 61.93359375 C48.03995701 60.04505403 46.30052413 58.26844352 44.5 56.5 C42.06610268 54.10946833 39.78644441 51.64953738 37.5625 49.0625 C35.14382221 46.25423653 32.64100317 43.60029407 30 41 C26.78565269 37.8288397 23.78249037 34.54417247 20.83984375 31.12109375 C18.80491181 28.77508942 16.71709033 26.4826355 14.625 24.1875 C9.11180017 18.07853415 3.57025881 11.85538822 -1 5 C-3.40828783 4.3585322 -3.40828783 4.3585322 -6 5 C-8.20129542 6.96127056 -8.20129542 6.96127056 -10.125 9.6875 C-10.91003906 10.69941406 -11.69507813 11.71132813 -12.50390625 12.75390625 C-13.11903076 13.55852295 -13.11903076 13.55852295 -13.74658203 14.37939453 C-21.80530226 24.79890853 -30.88957328 34.31766296 -39.95800781 43.84912109 C-43.19598513 47.25975957 -46.41072105 50.69204263 -49.625 54.125 C-50.24068848 54.78201904 -50.85637695 55.43903809 -51.49072266 56.1159668 C-62.35821846 67.71512141 -73.19061287 79.34669062 -84 91 C-87.16115776 89.63016497 -87.9927092 89.0109362 -90 86 C-82.7430111 78.09702913 -75.42891001 70.25068349 -68.06860352 62.44384766 C-63.67886215 57.78681403 -59.30172056 53.11845351 -54.9375 48.4375 C-54.36829834 47.82777344 -53.79909668 47.21804688 -53.21264648 46.58984375 C-50.26644446 43.43346627 -47.32527544 40.27259016 -44.390625 37.10546875 C-37.72891252 29.93376026 -30.97168086 22.87171138 -24.0625 15.9375 C-23.37696045 15.24736816 -22.6914209 14.55723633 -21.98510742 13.84619141 C-18.63423825 10.505485 -15.23254802 7.22230718 -11.7421875 4.02734375 C-11.11812012 3.45363037 -10.49405273 2.87991699 -9.85107422 2.28881836 C-6.96199321 0.27728333 -4.38351032 0.58569261 -1 1 C-0.67 0.67 -0.34 0.34 0 0 Z " fill="#080808" transform="translate(454,343)"/>
<path d="M0 0 C8.58 0 17.16 0 26 0 C25.67 0.99 25.34 1.98 25 3 C24.34 3 23.68 3 23 3 C22.93050973 13.23119412 22.87719367 23.46233215 22.84456348 33.69371414 C22.82890314 38.44449444 22.80765812 43.19511336 22.77368164 47.94580078 C22.74110136 52.52992084 22.72314976 57.11388559 22.71536827 61.69811249 C22.70982237 63.44763382 22.69899263 65.19714659 22.68280983 66.94660187 C22.66105304 69.39590364 22.65803231 71.84456256 22.65942383 74.29394531 C22.648638 75.01827255 22.63785217 75.74259979 22.6267395 76.48887634 C22.65509088 81.09644223 23.06500405 82.08667207 26 86 C17.42 86 8.84 86 0 86 C0 85.34 0 84.68 0 84 C1.485 83.01 1.485 83.01 3 82 C3.30252083 79.46816017 3.4095912 77.17925571 3.38818359 74.64453125 C3.39344055 73.88667328 3.39869751 73.12881531 3.40411377 72.34799194 C3.41734755 69.83595334 3.40856409 67.32454535 3.3984375 64.8125 C3.40045727 63.0713692 3.4033679 61.33023922 3.40713501 59.58911133 C3.41156293 55.93725543 3.40511237 52.28561943 3.39111328 48.63378906 C3.37402103 43.94583128 3.38385972 39.2583887 3.40183067 34.57044983 C3.41265595 30.97428484 3.40922798 27.3782426 3.4014473 23.78207397 C3.3994418 22.05325256 3.40191676 20.3244201 3.40888596 18.59561157 C3.41647998 16.18192908 3.40492591 13.76908832 3.38818359 11.35546875 C3.39729263 10.2769313 3.39729263 10.2769313 3.40658569 9.17660522 C3.41337304 6.98220723 3.41337304 6.98220723 3 4 C2.01 3.34 1.02 2.68 0 2 C0 1.34 0 0.68 0 0 Z " fill="#091A24" transform="translate(648,633)"/>
<path d="M0 0 C3.73040055 1.44402602 3.73040055 1.44402602 4.87890625 3.8125 C5 6 5 6 3.375 8.078125 C2.59125 8.79484375 1.8075 9.5115625 1 10.25 C-2.0292417 13.11042947 -4.9222257 15.95325116 -7.625 19.125 C-10.36359856 22.31792828 -13.2542697 25.27646534 -16.25390625 28.22265625 C-18.06477643 30.06593574 -19.75321354 31.97822799 -21.4375 33.9375 C-23.85617779 36.74576347 -26.35899683 39.39970593 -29 42 C-31.62040609 44.58009215 -34.10323412 47.21103607 -36.5 50 C-38.89676588 52.78896393 -41.37959391 55.41990785 -44 58 C-47.87991423 61.82738154 -51.48106887 65.84054433 -55 70 C-55.85078125 70.87591797 -56.7015625 71.75183594 -57.578125 72.65429688 C-60.50084636 76.18051457 -60.57999601 79.00019945 -60.48828125 83.5859375 C-60.48120651 84.28772125 -60.47413177 84.989505 -60.46684265 85.71255493 C-60.43905097 87.93449591 -60.37635434 90.15383265 -60.3125 92.375 C-60.28739686 93.88928628 -60.26458722 95.40361243 -60.24414062 96.91796875 C-60.18927846 100.6128126 -60.10311808 104.30615175 -60 108 C-64.5156486 106.97472187 -66.60876898 105.16001072 -70 102 C-70 101.34 -70 100.68 -70 100 C-70.8971875 99.62875 -70.8971875 99.62875 -71.8125 99.25 C-75.84527417 96.94555762 -77.68868661 93.37104464 -79 89 C-78.58373452 85.09853135 -76.57859154 83.15652694 -73.9375 80.375 C-70.85136786 77.05072538 -67.91254472 73.70321475 -65.125 70.125 C-60.38821058 64.13435456 -55.22016171 58.56620692 -50 53 C-49.40123047 52.36143066 -48.80246094 51.72286133 -48.18554688 51.06494141 C-44.83292421 47.4931875 -41.4746526 43.92680168 -38.11328125 40.36328125 C-34.21352152 36.22867361 -30.32364481 32.08490254 -26.4375 27.9375 C-25.52762329 26.96683594 -25.52762329 26.96683594 -24.59936523 25.9765625 C-21.35350866 22.51339749 -18.10958494 19.04843507 -14.8671875 15.58203125 C-14.18857666 14.85701416 -13.50996582 14.13199707 -12.81079102 13.38500977 C-11.51383155 11.99931514 -10.21741261 10.61311434 -8.92163086 9.22631836 C-5.99504857 6.10031516 -3.05502435 3.00195941 0 0 Z " fill="#0C0C0C" transform="translate(531,249)"/>
<path d="M0 0 C5.40858151 -0.09219173 10.81440123 -0.17171712 16.22314453 -0.21972656 C18.06015293 -0.23975373 19.89709829 -0.26698382 21.73388672 -0.30175781 C24.38525002 -0.35067065 27.03576541 -0.37305763 29.6875 -0.390625 C30.49928711 -0.41127014 31.31107422 -0.43191528 32.14746094 -0.45318604 C37.83238726 -0.45538745 42.28147767 0.72063835 47 4 C48.97698481 7.95396963 48.57069292 12.70119353 48 17 C45.7984026 19.89683868 44.21405538 21.39297231 41 23 C37.93757679 23.08711775 34.89813535 23.1154846 31.8359375 23.09765625 C30.92872955 23.0962413 30.02152161 23.09482635 29.08682251 23.09336853 C26.18284845 23.08776096 23.27895085 23.07520718 20.375 23.0625 C18.40885528 23.05748598 16.44270935 23.0529229 14.4765625 23.04882812 C9.65098834 23.03863899 4.82558 23.01906507 0 23 C0 15.41 0 7.82 0 0 Z " fill="#FAFAFA" transform="translate(253,647)"/>
<path d="M0 0 C4.99930575 -0.06911483 9.99693391 -0.1287727 14.99633789 -0.16479492 C16.69463742 -0.17982126 18.39289855 -0.20024823 20.09106445 -0.22631836 C22.54127518 -0.26297449 24.99097 -0.27978789 27.44140625 -0.29296875 C28.56839684 -0.31619453 28.56839684 -0.31619453 29.71815491 -0.33988953 C35.56965204 -0.34173051 40.32615381 0.75741933 44.9375 4.625 C46.62875802 8.40545911 46.77210144 11.94295787 46 16 C44.28095248 19.06881816 42.19285833 21.40357084 39 23 C36.08300726 23.08698228 33.19017452 23.11551923 30.2734375 23.09765625 C28.97921371 23.09553383 28.97921371 23.09553383 27.65884399 23.09336853 C24.8975277 23.08776188 22.13629188 23.07520827 19.375 23.0625 C17.5052095 23.05748586 15.63541774 23.0529228 13.765625 23.04882812 C9.17702723 23.0386403 4.58860392 23.01906622 0 23 C0 15.41 0 7.82 0 0 Z " fill="#FBFBFB" transform="translate(464,647)"/>
<path d="M0 0 C3.76325813 2.50883875 6.22718883 5.35517535 7.27661133 9.87304688 C7.53184329 12.12011418 7.62190175 14.30101384 7.625 16.5625 C7.62798096 17.35470947 7.63096191 18.14691895 7.6340332 18.96313477 C7.35130995 26.09662763 5.05908319 29.67924048 0.07421875 34.80859375 C-0.67214844 35.49050781 -1.41851562 36.17242187 -2.1875 36.875 C-2.69667969 37.48472656 -3.20585937 38.09445312 -3.73046875 38.72265625 C-5.1875 39.875 -5.1875 39.875 -7.05078125 39.90234375 C-10.16637636 38.40435195 -12.15154828 36.00703965 -14.375 33.4375 C-14.82552734 32.93412109 -15.27605469 32.43074219 -15.74023438 31.91210938 C-20.05150634 27.04496126 -20.39471142 23.98980145 -20.4375 17.625 C-20.458125 16.87347656 -20.47875 16.12195313 -20.5 15.34765625 C-20.53428905 10.43574986 -19.86649279 7.14708317 -17.1875 2.875 C-12.11047612 -1.7260529 -6.39919325 -2.2585388 0 0 Z " fill="#020202" transform="translate(457.1875,294.125)"/>
<path d="M0 0 C2.9720191 2.55019834 4.29621847 5.37771854 5.91796875 8.91015625 C6.44970703 10.06451172 6.98144531 11.21886719 7.52929688 12.40820312 C7.8012085 13.00769775 8.07312012 13.60719238 8.35327148 14.22485352 C9.18781034 16.06318361 10.03347585 17.89607636 10.88085938 19.72851562 C15 28.72624771 15 28.72624771 15 31 C5.76 31 -3.48 31 -13 31 C-12.13873234 26.69366172 -11.10983972 23.7399733 -9.27734375 19.82421875 C-8.47006836 18.08881836 -8.47006836 18.08881836 -7.64648438 16.31835938 C-7.07694064 15.10801751 -6.50727769 13.89773174 -5.9375 12.6875 C-5.36343439 11.45791463 -4.7898615 10.22809909 -4.21679688 8.99804688 C-2.81602767 5.99639857 -1.41027491 2.99719095 0 0 Z " fill="#F4F4F4" transform="translate(73,655)"/>
<path d="M0 0 C3.77127112 3.54552602 6.73458395 7.23718229 9.5 11.625 C9.89018311 12.24181641 10.28036621 12.85863281 10.68237305 13.49414062 C16.66733791 23.12987178 20.28267748 32.99296545 23 44 C23.34224609 45.34384766 23.34224609 45.34384766 23.69140625 46.71484375 C29.02465407 72.11303789 23.91663619 99.27612041 11.4375 121.75 C10.89198486 122.73323242 10.89198486 122.73323242 10.33544922 123.73632812 C7.99119698 127.76705497 5.43076244 130.84056324 2 134 C3.42257056 130.26025265 5.08408234 126.67682331 6.81762695 123.07519531 C18.74694811 98.2525118 23.95605036 71.31567926 18 44 C17.63261719 42.27136719 17.63261719 42.27136719 17.2578125 40.5078125 C14.15170574 27.50614438 9.07183012 14.30904889 1.03125 3.53125 C0 2 0 2 0 0 Z " fill="#0C0C0C" transform="translate(540,273)"/>
<path d="M0 0 C0 3.68866387 -0.97465257 4.69109479 -3.0625 7.6875 C-18.95023086 32.06584007 -24.03354989 63.34800714 -18.55322266 91.80810547 C-15.77535813 104.35280721 -11.20234584 116.65597917 -4.96875 127.8828125 C-4.48921875 128.93082031 -4.48921875 128.93082031 -4 130 C-4.33 130.66 -4.66 131.32 -5 132 C-22.33572088 110.08006114 -27.42250796 82.2073475 -24.6484375 54.921875 C-24.2185946 51.90568925 -23.66828128 48.97154002 -23 46 C-22.80535156 45.01644531 -22.61070312 44.03289062 -22.41015625 43.01953125 C-18.93497252 27.12416427 -10.32397853 12.42643009 0 0 Z " fill="#0C0C0C" transform="translate(361,272)"/>
<path d="M0 0 C0.495 0.99 0.495 0.99 1 2 C-3.99472079 0.41833842 -8.77225776 -1.31432834 -13.5625 -3.4375 C-42.79115799 -15.79342055 -76.61537416 -13.26058392 -105.68017578 -2.02441406 C-108.99564334 -0.56033262 -112.07532346 1.24704958 -115.16772461 3.13134766 C-116.07470093 3.56133057 -116.07470093 3.56133057 -117 4 C-117.66 3.67 -118.32 3.34 -119 3 C-82.70281839 -20.40603855 -37.27280718 -24.41137431 0 0 Z " fill="#0A0A0A" transform="translate(508,243)"/>
<path d="M0 0 C0 3.84196882 -1.57208966 6.4583802 -3.25 9.8125 C-14.26890524 32.59565792 -14.7677852 57.87448215 -7.15625 81.8046875 C-5.65307439 85.95873361 -3.82772294 89.90517663 -1.85546875 93.85546875 C-1.57316406 94.56316406 -1.29085938 95.27085937 -1 96 C-1.495 96.99 -1.495 96.99 -2 98 C-15.09756041 78.14240841 -20.30162441 57.15188234 -16.34765625 33.375 C-13.8047976 21.13494699 -8.07757107 9.52739151 0 0 Z " fill="#0F0F0F" transform="translate(379,291)"/>
<path d="M0 0 C11.95894232 10.55200793 17.05842233 27.30887813 18.20507812 42.76416016 C19.19321777 61.81086457 15.93574298 77.55156643 6 94 C3.78515625 96.390625 3.78515625 96.390625 2 98 C3.24488277 94.09974802 4.68245923 90.41216775 6.375 86.6875 C14.86598608 66.07733202 16.13352646 43.21589261 9 22 C8.79681152 21.36465332 8.59362305 20.72930664 8.38427734 20.07470703 C6.24279843 13.38153568 3.94223208 7.82982625 0 2 C0 1.34 0 0.68 0 0 Z " fill="#0C0C0C" transform="translate(521,291)"/>
<path d="M0 0 C0.495 0.99 0.495 0.99 1 2 C-0.216875 1.5875 -1.43375 1.175 -2.6875 0.75 C-6.59606691 -0.54671009 -10.51121419 -1.82041669 -14.4375 -3.0625 C-15.95150391 -3.54396484 -15.95150391 -3.54396484 -17.49609375 -4.03515625 C-26.27316829 -6.45203185 -34.51516598 -7.38842742 -43.625 -7.375 C-44.76783447 -7.37338867 -45.91066895 -7.37177734 -47.08813477 -7.37011719 C-59.53896829 -7.19062669 -70.16975633 -4.35153907 -81.765625 0.16796875 C-83.83042288 0.93685327 -85.85350637 1.5126081 -88 2 C-81.44748367 -5.85320309 -66.90687929 -10.67995237 -57.13525391 -11.81689453 C-36.04756539 -13.62523736 -18.29233583 -10.87652401 0 0 Z " fill="#101010" transform="translate(494,265)"/>
<path d="M0 0 C0 10.23 0 20.46 0 31 C-2.64 29.02 -5.28 27.04 -8 25 C-8 24.34 -8 23.68 -8 23 C-8.61875 22.7525 -9.2375 22.505 -9.875 22.25 C-12.4378364 20.74244918 -13.04314447 19.79082862 -14 17 C-14.3125 14.65234375 -14.3125 14.65234375 -14 12 C-12.171875 9.6484375 -12.171875 9.6484375 -9.75 7.375 C-8.96109375 6.61960937 -8.1721875 5.86421875 -7.359375 5.0859375 C-1.60674157 0 -1.60674157 0 0 0 Z " fill="#FBFBFB" transform="translate(469,326)"/>
<path d="M0 0 C13.26230537 9.94672903 13.26230537 9.94672903 14.0625 15.125 C13.88341927 19.54978627 11.79578855 21.63809006 8.74584961 24.55615234 C1.54482374 31 1.54482374 31 0 31 C0 20.77 0 10.54 0 0 Z " fill="#DFDFDF" transform="translate(432,326)"/>
<path d="M0 0 C3.50553578 3.11011743 5.27275191 6.17976967 7.1875 10.4375 C7.95126953 12.10619141 7.95126953 12.10619141 8.73046875 13.80859375 C13.31480481 25.33290932 12.35453628 40.79989923 8.22265625 52.27734375 C6.48252296 56.15233704 4.4493197 59.53013042 2 63 C1 61 1 61 1.7421875 58.4609375 C2.49172273 56.41910016 3.24171568 54.37743078 3.9921875 52.3359375 C8.59770027 37.09133322 7.12793911 18.41956915 0.8046875 3.99609375 C0 2 0 2 0 0 Z " fill="#0D0D0D" transform="translate(502,309)"/>
<path d="M0 0 C0.33 0.66 0.66 1.32 1 2 C0.17697718 4.40540923 -0.86472565 6.68033766 -1.89453125 9.00390625 C-4.64844025 16.46768082 -5.38686068 23.70555111 -5.375 31.625 C-5.37556396 32.58269287 -5.37612793 33.54038574 -5.37670898 34.52709961 C-5.24794556 42.92627423 -3.58281882 50.04408822 -1 58 C-0.64005293 59.66112221 -0.29608944 61.32631546 0 63 C-7.75847425 55.78439275 -9.77417339 46.4814473 -10.25390625 36.3046875 C-10.70334351 21.83936499 -7.93574818 12.19459971 0 0 Z " fill="#131313" transform="translate(398,309)"/>
<path d="M0 0 C-3.84241177 1.28080392 -5.22117203 0.30805584 -9 -1 C-15.08081565 -2.13223521 -21.076456 -2.18347553 -27.25 -2.1875 C-28.22324219 -2.19974609 -29.19648438 -2.21199219 -30.19921875 -2.22460938 C-37.01072396 -2.23817811 -43.34613395 -1.41731798 -50 0 C-51.66641627 0.33458289 -53.33301139 0.66828045 -55 1 C-39.16773245 -12.91320482 -17.11289242 -9.39531349 0 0 Z " fill="#161616" transform="translate(478,286)"/>
<path d="M0 0 C1.32 0.33 2.64 0.66 4 1 C3.67 11.89 3.34 22.78 3 34 C2.01 34.495 2.01 34.495 1 35 C-0.50606515 31.98786971 -0.12160331 28.88717378 -0.09765625 25.5859375 C-0.0962413 24.85629791 -0.09482635 24.12665833 -0.09336853 23.37490845 C-0.08776531 21.04156415 -0.07521235 18.70831536 -0.0625 16.375 C-0.05748541 14.79427222 -0.05292243 13.21354293 -0.04882812 11.6328125 C-0.03779484 7.75517146 -0.02052811 3.87760193 0 0 Z " fill="#525252" transform="translate(429,324)"/>
<path d="M0 0 C7 6 7 6 7.875 9.5 C7 13 7 13 0 19 C0 12.73 0 6.46 0 0 Z " fill="#070707" transform="translate(437,332)"/>
<path d="M0 0 C0 5.94 0 11.88 0 18 C-5 15 -5 15 -7 13 C-7.53021118 9.55362731 -7.81607109 7.11813919 -5.69140625 4.20703125 C-1.52434679 0 -1.52434679 0 0 0 Z " fill="#040404" transform="translate(464,332)"/>
<path d="M0 0 C0.33 0 0.66 0 1 0 C1.33 1.65 1.66 3.3 2 5 C2.99 5 3.98 5 5 5 C5.99 6.65 6.98 8.3 8 10 C5.36 12.97 2.72 15.94 0 19 C-1.66413655 15.6717269 -0.81867406 12.00266027 -0.5625 8.375 C-0.51029297 7.57320313 -0.45808594 6.77140625 -0.40429688 5.9453125 C-0.27451629 3.96320897 -0.13790265 1.98155501 0 0 Z " fill="#BDBDBD" transform="translate(464,303)"/>
<path d="M0 0 C0 7.92 0 15.84 0 24 C-1.32 23.34 -2.64 22.68 -4 22 C-4 21.34 -4 20.68 -4 20 C-4.61875 19.7525 -5.2375 19.505 -5.875 19.25 C-8.4378364 17.74244918 -9.04314447 16.79082862 -10 14 C-10.32421875 11.6640625 -10.32421875 11.6640625 -10 9 C-8.06640625 6.54296875 -8.06640625 6.54296875 -5.5625 4.1875 C-4.73878906 3.39730469 -3.91507812 2.60710937 -3.06640625 1.79296875 C-1 0 -1 0 0 0 Z M-5.0625 5.5625 C-7.52116843 8.08665354 -7.98858298 8.94576917 -8.75 12.5625 C-7.71494027 17.30652376 -5.96755297 18.32797453 -2 21 C-1.67 21 -1.34 21 -1 21 C-1 15.06 -1 9.12 -1 3 C-2.53770357 2.89304623 -2.53770357 2.89304623 -5.0625 5.5625 Z " fill="#959595" transform="translate(465,329)"/>
<path d="M0 0 C0.33 0 0.66 0 1 0 C1.33 5.94 1.66 11.88 2 18 C-1.31091002 14.68908998 -4.17663266 11.65992062 -7 8 C-5.625 6 -5.625 6 -4 4 C-3.34 4 -2.68 4 -2 4 C-1.67 4.66 -1.34 5.32 -1 6 C-0.67 4.02 -0.34 2.04 0 0 Z " fill="#B7B7B7" transform="translate(436,304)"/>
<path d="M0 0 C0.66 0.33 1.32 0.66 2 1 C1.67 1.33 1.34 1.66 1 2 C1.66 2.66 2.32 3.32 3 4 C2.02160156 4.30292969 1.04320312 4.60585937 0.03515625 4.91796875 C-6.85183071 7.10261205 -13.21979505 9.27126009 -19.36328125 13.1796875 C-19.90339844 13.45039063 -20.44351562 13.72109375 -21 14 C-21.66 13.67 -22.32 13.34 -23 13 C-5.86725664 2.17790662 -5.86725664 2.17790662 0 0 Z " fill="#303030" transform="translate(412,233)"/>
<path d="M0 0 C0.66 0.66 1.32 1.32 2 2 C0.61457508 4.56862006 -0.78271239 7.12949529 -2.1875 9.6875 C-2.57486328 10.40873047 -2.96222656 11.12996094 -3.36132812 11.87304688 C-5.79502798 16.27784248 -8.25628554 19.62866211 -12 23 C-10.20329871 18.3210904 -8.11377765 13.7915585 -6 9.25 C-5.64421875 8.47011719 -5.2884375 7.69023437 -4.921875 6.88671875 C-4.57640625 6.14550781 -4.2309375 5.40429688 -3.875 4.640625 C-3.56304688 3.96547852 -3.25109375 3.29033203 -2.9296875 2.59472656 C-2 1 -2 1 0 0 Z " fill="#191919" transform="translate(554,384)"/>
<path d="M0 0 C0 3.74044593 -1.09733449 4.9338297 -3.1875 8 C-6.75935195 13.4376364 -9.48600959 19.01044681 -12 25 C-12.99 25 -13.98 25 -15 25 C-13.27409439 15.68453509 -5.91043467 7.11407942 0 0 Z " fill="#303030" transform="translate(361,272)"/>
<path d="M0 0 C5.03055113 1.94851888 9.87012201 4.25979788 14.74609375 6.5625 C17.79244062 7.9083051 20.82446666 9.00375425 24 10 C23.01 10.99 22.02 11.98 21 13 C13.68902987 9.51151679 6.4307448 5.98545115 0 1 C0 0.67 0 0.34 0 0 Z " fill="#2F2F2F" transform="translate(388,435)"/>
<path d="M0 0 C3.98556309 3.71655528 6.92020902 7.58197177 9.8125 12.1875 C10.21919922 12.81591797 10.62589844 13.44433594 11.04492188 14.09179688 C14 18.73549107 14 18.73549107 14 21 C13.01 21.33 12.02 21.66 11 22 C10.45730469 20.89140625 9.91460938 19.7828125 9.35546875 18.640625 C8.63302726 17.17697731 7.91035908 15.7134415 7.1875 14.25 C6.83107422 13.52039063 6.47464844 12.79078125 6.10742188 12.0390625 C4.31111148 8.41348188 2.47439713 5.21593571 0 2 C0 1.34 0 0.68 0 0 Z " fill="#323232" transform="translate(540,273)"/>
<path d="M0 0 C2.5 0.125 2.5 0.125 3.5 1.125 C3.625 3.625 3.625 3.625 3.5 6.125 C2.5 7.125 2.5 7.125 0 7.25 C-2.5 7.125 -2.5 7.125 -3.5 6.125 C-3.625 3.625 -3.625 3.625 -3.5 1.125 C-2.5 0.125 -2.5 0.125 0 0 Z " fill="#9D9D9D" transform="translate(450.5,337.875)"/>
<path d="M0 0 C-2.22687976 1.29574871 -4.45633175 2.58667308 -6.6875 3.875 C-7.31333984 4.23980469 -7.93917969 4.60460937 -8.58398438 4.98046875 C-11.98194942 6.93741197 -15.30067619 8.65607739 -19 10 C-19 8.68 -19 7.36 -19 6 C-16.2120519 4.80303299 -13.42025583 3.61716986 -10.625 2.4375 C-9.8309375 2.09525391 -9.036875 1.75300781 -8.21875 1.40039062 C-7.45820313 1.08134766 -6.69765625 0.76230469 -5.9140625 0.43359375 C-4.8614624 -0.01415405 -4.8614624 -0.01415405 -3.78759766 -0.47094727 C-2 -1 -2 -1 0 0 Z " fill="#1F1F1F" transform="translate(510,438)"/>
<path d="M0 0 C3.60415049 1.2013835 4.14706011 2.26143988 6.1875 5.375 C6.71730469 6.16648437 7.24710937 6.95796875 7.79296875 7.7734375 C9 10 9 10 9 13 C9.99 13.33 10.98 13.66 12 14 C11.67 14.66 11.34 15.32 11 16 C6.15671421 13.71449716 4.75538953 11.16963588 2.6875 6.3125 C2.17574219 5.13300781 1.66398437 3.95351563 1.13671875 2.73828125 C0.57404297 1.38283203 0.57404297 1.38283203 0 0 Z " fill="#1D9D66" transform="translate(307,426)"/>
<path d="M0 0 C0 4.01573761 -1.60306114 7.04878991 -3.25 10.625 C-3.55035156 11.31851562 -3.85070312 12.01203125 -4.16015625 12.7265625 C-5.078125 14.7265625 -5.078125 14.7265625 -7 18 C-9.12011719 18.70458984 -9.12011719 18.70458984 -11 19 C-9.52852919 15.01967146 -7.64511094 11.47100488 -5.5 7.8125 C-4.8915625 6.76707031 -4.283125 5.72164063 -3.65625 4.64453125 C-2 2 -2 2 0 0 Z " fill="#313131" transform="translate(379,291)"/>
<path d="M0 0 C0.66 0.33 1.32 0.66 2 1 C0.76682568 3.65491655 -0.48507926 6.29776292 -1.75 8.9375 C-2.09804688 9.69224609 -2.44609375 10.44699219 -2.8046875 11.22460938 C-3.15273438 11.94326172 -3.50078125 12.66191406 -3.859375 13.40234375 C-4.17358398 14.06741943 -4.48779297 14.73249512 -4.81152344 15.41772461 C-6.34033539 17.45310469 -7.53481944 17.63654389 -10 18 C-10 17.34 -10 16.68 -10 16 C-9.34 16 -8.68 16 -8 16 C-7.90847656 15.46890625 -7.81695313 14.9378125 -7.72265625 14.390625 C-6.75649098 11.19444585 -5.14884249 8.61260925 -3.4375 5.75 C-2.79683594 4.67234375 -2.15617188 3.5946875 -1.49609375 2.484375 C-1.00238281 1.66453125 -0.50867188 0.8446875 0 0 Z " fill="#1E2A2F" transform="translate(595,420)"/>
<path d="M0 0 C-2.33881544 3.50822316 -3.48414203 3.80023066 -7.375 5.125 C-8.33148438 5.45757812 -9.28796875 5.79015625 -10.2734375 6.1328125 C-12.50679116 6.84313415 -14.71848257 7.47016894 -17 8 C-14.51259818 5.21007634 -11.75781143 3.55405687 -8.5 1.75 C-7.5409375 1.20859375 -6.581875 0.6671875 -5.59375 0.109375 C-3 -1 -3 -1 0 0 Z " fill="#2C2C2C" transform="translate(423,259)"/>
<path d="M0 0 C8.58 0 17.16 0 26 0 C25.67 0.99 25.34 1.98 25 3 C24.34 2.67 23.68 2.34 23 2 C21.40737934 1.84824451 19.80935144 1.75099675 18.2109375 1.68359375 C17.26992188 1.64169922 16.32890625 1.59980469 15.359375 1.55664062 C14.37453125 1.51732422 13.3896875 1.47800781 12.375 1.4375 C11.38242187 1.39431641 10.38984375 1.35113281 9.3671875 1.30664062 C6.91160162 1.20038931 4.45591297 1.09835036 2 1 C1.67 1.66 1.34 2.32 1 3 C0.67 2.01 0.34 1.02 0 0 Z " fill="#1E2D36" transform="translate(648,633)"/>
<path d="M0 0 C0.33 0 0.66 0 1 0 C1 7.92 1 15.84 1 24 C-0.32 23.34 -1.64 22.68 -3 22 C-3 21.34 -3 20.68 -3 20 C-2.34 20 -1.68 20 -1 20 C-0.67 13.4 -0.34 6.8 0 0 Z " fill="#B8B8B8" transform="translate(464,329)"/>
<path d="M0 0 C2.96659857 3.55991828 5.381348 7.65222543 7 12 C6.67 12.66 6.34 13.32 6 14 C4.79719839 12.42825925 3.61318725 10.84212442 2.4375 9.25 C1.77621094 8.36828125 1.11492187 7.4865625 0.43359375 6.578125 C-1 4 -1 4 -0.71484375 1.671875 C-0.47894531 1.12015625 -0.24304688 0.5684375 0 0 Z " fill="#292929" transform="translate(350,390)"/>
<path d="M0 0 C0.33 0.99 0.66 1.98 1 3 C-0.43359375 5.69921875 -0.43359375 5.69921875 -2.4375 8.6875 C-3.42556641 10.17830078 -3.42556641 10.17830078 -4.43359375 11.69921875 C-5.20896484 12.83810547 -5.20896484 12.83810547 -6 14 C-6.33 13.34 -6.66 12.68 -7 12 C-6.07421875 9.43359375 -6.07421875 9.43359375 -4.6875 6.4375 C-4.23761719 5.44621094 -3.78773438 4.45492188 -3.32421875 3.43359375 C-2 1 -2 1 0 0 Z " fill="#1F1F1F" transform="translate(530,375)"/>
<path d="M0 0 C4.33034194 3.84919283 6.6560756 7.72289646 9 13 C8.01 13 7.02 13 6 13 C5.18501438 11.3970947 4.37310073 9.79262722 3.5625 8.1875 C3.11003906 7.29417969 2.65757812 6.40085937 2.19140625 5.48046875 C1 3 1 3 0 0 Z " fill="#3F3F3F" transform="translate(521,291)"/>
<path d="M0 0 C0.66 0.99 1.32 1.98 2 3 C-0.31 6.3 -2.62 9.6 -5 13 C-5 9.51038791 -4.09620626 7.88519705 -2.5 4.8125 C-2.0359375 3.91144531 -1.571875 3.01039063 -1.09375 2.08203125 C-0.7328125 1.39496094 -0.371875 0.70789063 0 0 Z " fill="#3B3B3B" transform="translate(548,394)"/>
<path d="M0 0 C3.81300782 3.2870757 5.22972246 6.39727838 7 11 C6.01 11.33 5.02 11.66 4 12 C3.3291288 10.3767313 2.66342971 8.75132422 2 7.125 C1.62875 6.22007812 1.2575 5.31515625 0.875 4.3828125 C0 2 0 2 0 0 Z " fill="#363636" transform="translate(502,309)"/>
<path d="M0 0 C4.30764815 1.56641751 8.06171464 3.68336156 12 6 C11.01 6.495 11.01 6.495 10 7 C7.92803369 6.26821134 5.8891448 5.44100997 3.875 4.5625 C2.77929688 4.08941406 1.68359375 3.61632812 0.5546875 3.12890625 C-0.28835938 2.75636719 -1.13140625 2.38382813 -2 2 C-1.34 1.34 -0.68 0.68 0 0 Z " fill="#2B2B2B" transform="translate(497,238)"/>
<path d="M0 0 C0.66 0.33 1.32 0.66 2 1 C1.01 2.98 0.02 4.96 -1 7 C-1.99 7 -2.98 7 -4 7 C-2.92598892 4.08482708 -2.22189824 2.22189824 0 0 Z " fill="#081317" transform="translate(586,437)"/>
<path d="M0 0 C-4.95 2.475 -4.95 2.475 -10 5 C-10.33 4.01 -10.66 3.02 -11 2 C-9.73392393 1.46770674 -8.46189588 0.94955456 -7.1875 0.4375 C-6.47980469 0.14746094 -5.77210938 -0.14257812 -5.04296875 -0.44140625 C-3 -1 -3 -1 0 0 Z " fill="#333333" transform="translate(493,418)"/>
<path d="M0 0 C1.98 0.495 1.98 0.495 4 1 C3.67 2.32 3.34 3.64 3 5 C1.68 4.67 0.36 4.34 -1 4 C-0.67 2.68 -0.34 1.36 0 0 Z " fill="#080808" transform="translate(449,339)"/>
<path d="M0 0 C3.63 0.66 7.26 1.32 11 2 C10.01 2.495 10.01 2.495 9 3 C9 3.66 9 4.32 9 5 C4.89198233 3.81323934 3.10551666 3.10551666 0 0 Z " fill="#252525" transform="translate(424,396)"/>
<path d="M0 0 C0.66 0.33 1.32 0.66 2 1 C-0.97 2.65 -3.94 4.3 -7 6 C-7.66 5.34 -8.32 4.68 -9 4 C-7.54618103 3.30300448 -6.08677047 2.61766134 -4.625 1.9375 C-3.40683594 1.36322266 -3.40683594 1.36322266 -2.1640625 0.77734375 C-1.44992187 0.52082031 -0.73578125 0.26429688 0 0 Z " fill="#414141" transform="translate(508,437)"/>
<path d="M0 0 C-3.96 1.98 -3.96 1.98 -8 4 C-8.33 3.01 -8.66 2.02 -9 1 C-2.25 -1.125 -2.25 -1.125 0 0 Z " fill="#5B5B5B" transform="translate(479,396)"/>
</svg>
